<svg id="svg" version="1.1" xmlns="http://www.w3.org/2000/svg" xmlns:xlink="http://www.w3.org/1999/xlink" width="400" height="400" viewBox="0, 0, 400,400"><g id="svgg"><path id="path0" d="M195.000 42.834 C 189.323 43.310,183.257 45.520,177.994 49.030 C 175.539 50.668,169.200 56.711,169.200 57.413 C 169.200 57.591,168.949 58.021,168.641 58.369 C 163.508 64.173,160.598 82.208,163.797 88.394 C 164.129 89.036,164.400 89.886,164.400 90.284 C 164.400 95.323,174.417 106.693,182.000 110.261 C 199.690 118.583,215.639 114.417,228.395 98.141 C 228.593 97.888,229.032 97.078,229.369 96.341 C 229.707 95.603,230.147 94.730,230.347 94.400 C 233.697 88.858,235.141 76.910,233.205 70.736 C 232.768 69.341,232.407 67.840,232.403 67.400 C 232.398 66.960,232.037 66.060,231.600 65.400 C 231.163 64.740,230.803 63.930,230.800 63.600 C 230.795 63.096,229.643 61.134,226.704 56.628 C 225.099 54.167,216.747 47.200,215.402 47.200 C 215.216 47.200,214.779 46.944,214.431 46.631 C 211.823 44.280,201.596 42.282,195.000 42.834 M51.600 283.815 C 51.270 283.882,49.290 284.156,47.200 284.424 C 36.218 285.833,25.369 293.949,20.499 304.400 C 17.201 311.476,16.083 324.328,18.328 329.351 C 18.808 330.424,19.200 331.524,19.200 331.796 C 19.200 332.067,19.746 333.439,20.413 334.845 C 29.423 353.819,52.555 361.194,70.600 350.846 C 75.202 348.207,77.724 345.967,80.784 341.800 C 83.120 338.620,84.012 337.047,86.230 332.200 C 88.859 326.456,88.831 311.599,86.185 307.402 C 85.906 306.961,85.557 306.017,85.408 305.305 C 85.260 304.592,84.970 303.905,84.763 303.777 C 84.557 303.650,84.116 302.973,83.783 302.273 C 80.583 295.536,73.593 289.362,65.549 286.166 C 62.461 284.939,53.500 283.429,51.600 283.815 M341.000 285.220 C 340.340 285.406,338.810 285.823,337.600 286.148 C 329.344 288.364,323.170 292.684,318.605 299.440 C 317.728 300.738,316.911 301.890,316.788 302.000 C 315.800 302.888,313.133 309.871,312.206 314.000 C 311.064 319.082,311.861 328.797,313.764 333.000 C 314.590 334.823,316.792 339.288,317.355 340.281 C 319.316 343.738,325.059 349.389,328.600 351.347 C 329.260 351.712,330.070 352.162,330.400 352.347 C 336.462 355.745,349.881 357.529,355.600 355.697 C 373.148 350.077,382.610 337.753,382.547 320.600 C 382.513 311.584,381.238 307.212,376.596 300.200 C 374.483 297.009,366.326 289.620,364.887 289.595 C 364.729 289.592,363.236 288.893,361.568 288.042 C 359.901 287.190,357.921 286.366,357.168 286.210 C 356.416 286.055,355.029 285.673,354.086 285.364 C 352.184 284.738,343.066 284.638,341.000 285.220 " stroke="none" fill="#040404" fill-rule="evenodd"></path><path id="path1" d="M190.000 23.874 C 189.450 23.983,188.730 24.306,188.400 24.591 C 188.070 24.875,186.682 25.185,185.315 25.279 C 183.743 25.386,182.556 25.697,182.083 26.124 C 181.673 26.496,180.700 26.800,179.922 26.800 C 179.114 26.800,178.072 27.143,177.491 27.600 C 176.931 28.040,176.125 28.400,175.698 28.400 C 175.271 28.400,174.507 28.760,174.000 29.200 C 173.493 29.640,172.767 30.000,172.388 30.000 C 172.008 30.000,171.458 30.289,171.165 30.642 C 170.873 30.995,170.265 31.457,169.816 31.669 C 167.787 32.629,166.450 33.521,165.342 34.655 C 164.684 35.328,163.850 36.044,163.490 36.246 C 162.221 36.956,158.400 40.527,158.400 41.003 C 158.400 41.267,157.580 42.365,156.579 43.442 C 155.577 44.519,154.511 45.671,154.211 46.003 C 153.910 46.335,153.540 47.100,153.389 47.703 C 153.237 48.306,152.971 48.800,152.796 48.800 C 152.455 48.800,150.931 51.138,150.155 52.852 C 149.893 53.431,149.481 54.026,149.240 54.176 C 148.998 54.325,148.794 54.752,148.787 55.124 C 148.781 55.496,148.332 56.700,147.791 57.800 C 147.250 58.900,146.806 60.183,146.804 60.651 C 146.802 61.119,146.543 61.715,146.229 61.976 C 145.904 62.246,145.540 63.600,145.382 65.125 C 145.230 66.596,144.854 68.087,144.547 68.438 C 143.704 69.400,143.715 87.061,144.559 88.901 C 144.887 89.615,145.277 91.100,145.427 92.200 C 145.576 93.300,145.926 94.470,146.205 94.800 C 146.485 95.130,146.837 96.155,146.988 97.077 C 147.139 97.999,147.500 98.951,147.789 99.191 C 148.079 99.432,148.435 100.262,148.580 101.035 C 148.725 101.809,149.084 102.534,149.377 102.647 C 149.670 102.759,150.015 103.374,150.143 104.013 C 150.270 104.652,150.741 105.541,151.188 105.988 C 151.634 106.434,152.000 107.120,152.000 107.511 C 152.000 107.902,152.315 108.512,152.700 108.866 C 153.085 109.219,153.717 109.934,154.104 110.454 C 154.490 110.975,155.255 111.966,155.804 112.658 C 156.352 113.350,156.800 114.057,156.800 114.231 C 156.800 114.874,165.632 123.200,166.314 123.200 C 166.703 123.200,167.326 123.515,167.697 123.900 C 169.394 125.660,169.995 126.049,171.350 126.269 C 172.147 126.399,172.800 126.632,172.800 126.788 C 172.800 127.211,174.708 128.000,175.730 128.000 C 176.221 128.000,176.930 128.360,177.307 128.800 C 177.684 129.240,178.371 129.600,178.833 129.600 C 179.295 129.600,180.131 129.960,180.691 130.400 C 181.250 130.840,182.022 131.200,182.405 131.200 C 182.788 131.200,183.317 131.458,183.579 131.774 C 183.841 132.090,184.570 132.462,185.200 132.600 C 185.830 132.738,186.559 133.110,186.821 133.426 C 187.083 133.742,187.540 134.000,187.837 134.000 C 188.355 134.000,190.241 134.834,193.200 136.372 C 193.970 136.772,195.173 137.224,195.872 137.376 C 196.572 137.527,197.359 137.910,197.621 138.226 C 197.883 138.542,198.273 138.800,198.486 138.800 C 198.699 138.800,199.331 139.160,199.891 139.600 C 200.450 140.040,201.260 140.400,201.691 140.400 C 202.121 140.400,202.931 140.760,203.491 141.200 C 204.050 141.640,204.894 142.000,205.365 142.000 C 205.836 142.000,206.530 142.360,206.907 142.800 C 207.284 143.240,208.004 143.600,208.507 143.600 C 209.010 143.600,209.730 143.960,210.107 144.400 C 210.484 144.840,211.250 145.200,211.809 145.200 C 212.368 145.200,212.927 145.465,213.051 145.789 C 213.176 146.113,213.904 146.496,214.671 146.640 C 215.437 146.783,216.157 147.143,216.271 147.440 C 216.384 147.736,217.083 148.092,217.824 148.231 C 218.565 148.370,219.370 148.723,219.613 149.016 C 219.856 149.309,220.570 149.662,221.200 149.800 C 221.830 149.938,222.559 150.310,222.821 150.626 C 223.083 150.942,223.555 151.200,223.870 151.200 C 224.184 151.200,225.107 151.534,225.921 151.942 C 226.734 152.351,228.120 153.045,229.000 153.484 C 229.880 153.924,231.110 154.407,231.734 154.558 C 233.075 154.882,234.800 156.616,234.800 157.639 C 234.800 158.035,235.025 158.504,235.300 158.680 C 235.994 159.124,237.600 161.467,237.600 162.035 C 237.600 162.704,239.995 166.800,240.386 166.800 C 240.566 166.800,240.837 167.294,240.989 167.898 C 241.140 168.502,241.880 169.747,242.632 170.665 C 243.385 171.584,244.000 172.587,244.000 172.895 C 244.000 173.204,244.561 174.073,245.247 174.828 C 245.934 175.583,246.764 176.830,247.092 177.600 C 247.421 178.370,247.817 179.090,247.971 179.200 C 248.126 179.310,248.839 180.435,249.556 181.700 C 250.272 182.965,251.011 184.000,251.198 184.000 C 251.384 184.000,251.646 184.498,251.779 185.106 C 251.913 185.715,252.647 186.895,253.411 187.729 C 254.175 188.562,254.800 189.470,254.800 189.745 C 254.800 190.020,255.250 190.855,255.800 191.600 C 256.350 192.345,256.800 193.108,256.800 193.294 C 256.800 193.761,258.488 196.128,259.100 196.520 C 259.375 196.696,259.600 197.196,259.600 197.632 C 259.600 198.067,260.320 199.334,261.200 200.448 C 262.080 201.561,262.800 202.698,262.800 202.974 C 262.800 203.250,263.160 203.802,263.600 204.200 C 264.040 204.598,264.400 205.228,264.400 205.600 C 264.400 205.972,264.760 206.602,265.200 207.000 C 265.640 207.398,266.000 207.947,266.000 208.219 C 266.000 208.492,266.253 208.812,266.562 208.930 C 266.872 209.049,267.249 209.710,267.400 210.400 C 267.551 211.090,267.922 211.749,268.222 211.864 C 268.523 211.979,268.880 212.422,269.015 212.847 C 269.345 213.888,271.270 216.800,271.628 216.800 C 271.785 216.800,272.037 217.294,272.189 217.898 C 272.340 218.502,273.080 219.747,273.832 220.665 C 274.585 221.584,275.200 222.587,275.200 222.895 C 275.200 223.203,275.819 224.150,276.575 225.000 C 277.331 225.850,278.063 226.997,278.201 227.548 C 278.340 228.100,278.778 229.012,279.174 229.576 C 279.571 230.139,280.021 231.005,280.174 231.500 C 280.328 231.995,280.610 232.400,280.800 232.400 C 280.990 232.400,281.262 232.765,281.403 233.210 C 281.743 234.279,283.664 237.200,284.028 237.200 C 284.185 237.200,284.428 237.657,284.568 238.215 C 284.708 238.773,285.448 240.100,286.211 241.163 C 286.975 242.226,287.600 243.271,287.600 243.486 C 287.600 243.700,287.955 244.198,288.390 244.591 C 288.824 244.984,289.299 245.683,289.446 246.145 C 289.773 247.176,291.221 249.286,291.900 249.720 C 292.175 249.896,292.400 250.391,292.400 250.820 C 292.400 251.249,292.755 251.955,293.190 252.390 C 293.624 252.824,294.094 253.636,294.234 254.194 C 294.374 254.751,294.649 255.307,294.845 255.428 C 295.044 255.551,294.988 256.038,294.721 256.524 C 294.376 257.153,294.149 263.335,293.918 278.400 C 293.701 292.544,293.448 299.726,293.142 300.400 C 292.332 302.187,292.152 326.351,292.937 328.029 C 293.289 328.783,293.748 330.660,293.955 332.200 C 294.347 335.106,295.252 338.231,296.232 340.062 C 296.544 340.646,296.800 341.347,296.800 341.620 C 296.800 342.518,299.525 347.802,300.569 348.929 C 301.133 349.537,301.698 350.453,301.827 350.965 C 301.955 351.476,303.127 353.037,304.430 354.432 C 305.734 355.828,306.800 357.108,306.800 357.276 C 306.800 357.676,311.124 362.000,311.524 362.000 C 311.692 362.000,312.978 363.072,314.382 364.383 C 315.785 365.693,317.443 366.878,318.066 367.015 C 318.690 367.152,319.200 367.397,319.200 367.561 C 319.200 367.955,322.341 370.000,322.947 370.000 C 323.208 370.000,323.841 370.293,324.353 370.652 C 324.865 371.010,326.002 371.465,326.881 371.663 C 327.760 371.860,328.744 372.287,329.068 372.611 C 329.395 372.938,330.386 373.200,331.297 373.200 C 332.298 373.200,333.238 373.473,333.710 373.900 C 335.013 375.080,358.478 375.189,360.056 374.022 C 360.708 373.540,361.782 373.200,362.652 373.200 C 363.469 373.200,364.435 372.930,364.799 372.601 C 365.163 372.271,366.325 371.840,367.381 371.643 C 368.437 371.446,369.413 371.112,369.550 370.900 C 369.688 370.689,370.475 370.296,371.300 370.027 C 372.125 369.758,372.800 369.375,372.800 369.177 C 372.800 368.978,373.294 368.691,373.898 368.540 C 374.501 368.388,375.867 367.575,376.934 366.732 C 378.000 365.889,379.124 365.200,379.433 365.200 C 379.741 365.200,380.218 364.840,380.493 364.400 C 380.768 363.960,381.146 363.600,381.334 363.600 C 382.378 363.600,391.209 353.863,391.771 352.092 C 391.926 351.602,392.213 351.200,392.407 351.200 C 392.602 351.200,393.407 350.075,394.197 348.700 C 394.986 347.325,395.798 345.930,396.001 345.600 C 396.852 344.214,398.400 340.468,398.400 339.793 C 398.400 339.391,398.715 338.715,399.100 338.290 C 400.409 336.845,400.351 304.008,399.038 302.695 C 398.754 302.412,398.395 301.500,398.239 300.669 C 398.083 299.838,397.696 299.058,397.378 298.936 C 397.060 298.814,396.800 298.284,396.800 297.757 C 396.800 297.231,396.440 296.440,396.000 296.000 C 395.560 295.560,395.200 294.866,395.200 294.458 C 395.200 294.051,394.750 293.231,394.200 292.638 C 393.650 292.044,393.200 291.268,393.200 290.913 C 393.200 290.558,392.929 289.982,392.597 289.634 C 389.968 286.871,388.399 285.005,388.397 284.636 C 388.391 283.883,382.702 278.400,381.927 278.400 C 381.689 278.400,380.927 277.815,380.233 277.100 C 378.673 275.492,376.880 274.206,375.653 273.817 C 375.140 273.654,374.379 273.179,373.961 272.761 C 373.542 272.342,372.809 272.000,372.331 272.000 C 371.854 272.000,371.156 271.722,370.781 271.383 C 370.406 271.043,369.419 270.655,368.587 270.520 C 367.755 270.385,366.743 269.943,366.338 269.538 C 365.932 269.132,365.169 268.800,364.643 268.800 C 364.116 268.800,363.586 268.540,363.464 268.222 C 363.342 267.904,362.615 267.527,361.849 267.383 C 361.082 267.239,360.365 266.886,360.255 266.598 C 360.144 266.311,359.514 265.957,358.855 265.812 C 358.195 265.667,357.441 265.290,357.179 264.974 C 356.917 264.658,356.388 264.400,356.005 264.400 C 355.622 264.400,354.850 264.040,354.291 263.600 C 353.731 263.160,353.011 262.800,352.691 262.800 C 352.370 262.800,351.650 262.440,351.091 262.000 C 350.531 261.560,349.725 261.200,349.299 261.200 C 348.873 261.200,348.198 260.840,347.800 260.400 C 347.402 259.960,346.654 259.600,346.138 259.600 C 345.622 259.600,344.840 259.240,344.400 258.800 C 343.960 258.360,343.169 258.000,342.643 258.000 C 342.116 258.000,341.586 257.740,341.464 257.422 C 341.342 257.104,340.615 256.727,339.849 256.583 C 339.082 256.439,338.362 256.079,338.249 255.783 C 338.135 255.487,337.415 255.127,336.649 254.983 C 335.882 254.839,335.162 254.479,335.049 254.183 C 334.935 253.887,334.209 253.525,333.435 253.380 C 332.662 253.235,331.830 252.877,331.587 252.584 C 331.344 252.291,330.630 251.938,330.000 251.800 C 329.370 251.662,328.641 251.290,328.379 250.974 C 328.117 250.658,327.719 250.400,327.496 250.400 C 326.881 250.400,320.333 247.174,319.246 246.336 C 318.721 245.931,317.978 245.600,317.595 245.600 C 317.212 245.600,316.683 245.342,316.421 245.026 C 316.159 244.710,315.404 244.333,314.742 244.187 C 312.335 243.659,310.245 241.741,309.090 239.003 C 308.905 238.565,308.508 238.069,308.208 237.901 C 307.908 237.733,307.541 237.044,307.394 236.371 C 307.246 235.697,306.872 235.049,306.562 234.930 C 306.253 234.812,306.000 234.504,306.000 234.246 C 306.000 233.989,305.640 233.470,305.200 233.093 C 304.760 232.716,304.400 232.068,304.400 231.653 C 304.400 231.238,304.102 230.651,303.738 230.349 C 303.374 230.047,302.831 229.260,302.532 228.600 C 301.847 227.088,301.192 226.072,300.300 225.135 C 299.915 224.731,299.600 224.163,299.600 223.873 C 299.600 223.583,298.969 222.638,298.197 221.773 C 297.426 220.908,296.683 219.850,296.546 219.423 C 296.409 218.995,295.731 217.825,295.039 216.823 C 294.348 215.820,293.565 214.505,293.299 213.900 C 293.034 213.295,292.648 212.800,292.440 212.800 C 292.233 212.800,291.942 212.248,291.794 211.573 C 291.646 210.898,291.272 210.249,290.962 210.130 C 290.653 210.012,290.400 209.692,290.400 209.419 C 290.400 209.147,290.040 208.598,289.600 208.200 C 289.160 207.802,288.800 207.157,288.800 206.767 C 288.800 206.376,288.490 205.747,288.111 205.369 C 287.733 204.990,287.216 204.302,286.963 203.840 C 286.711 203.378,286.250 202.532,285.941 201.960 C 285.631 201.388,285.067 200.610,284.689 200.231 C 284.310 199.853,284.000 199.205,284.000 198.791 C 284.000 198.378,283.767 197.896,283.482 197.720 C 283.197 197.544,282.437 196.344,281.793 195.053 C 281.149 193.763,280.392 192.618,280.111 192.510 C 279.830 192.403,279.600 191.974,279.600 191.557 C 279.600 191.141,279.258 190.458,278.839 190.039 C 278.421 189.621,277.946 188.860,277.783 188.347 C 277.431 187.239,276.004 185.130,275.300 184.680 C 275.025 184.504,274.800 184.009,274.800 183.580 C 274.800 183.151,274.485 182.470,274.100 182.066 C 273.370 181.301,272.625 180.136,271.718 178.342 C 271.424 177.760,270.917 177.063,270.592 176.793 C 270.266 176.523,270.000 176.087,270.000 175.823 C 270.000 175.560,269.280 174.379,268.400 173.200 C 267.520 172.021,266.799 170.863,266.798 170.628 C 266.797 170.392,266.183 169.532,265.433 168.716 C 264.684 167.900,263.951 166.685,263.804 166.016 C 263.657 165.347,263.386 164.800,263.203 164.800 C 263.019 164.800,262.215 163.630,261.415 162.200 C 260.615 160.770,259.804 159.600,259.612 159.600 C 259.420 159.600,259.142 159.048,258.994 158.373 C 258.846 157.698,258.472 157.049,258.162 156.930 C 257.853 156.812,257.600 156.492,257.600 156.219 C 257.600 155.947,257.240 155.398,256.800 155.000 C 256.360 154.602,256.000 153.951,256.000 153.554 C 256.000 153.156,255.677 152.509,255.282 152.116 C 254.887 151.722,254.340 150.950,254.066 150.400 C 253.108 148.476,252.468 147.489,251.982 147.189 C 251.344 146.795,251.422 107.303,252.064 105.662 C 253.166 102.846,253.273 72.726,252.190 70.200 C 251.907 69.540,251.568 67.830,251.437 66.400 C 251.288 64.789,250.970 63.631,250.599 63.356 C 250.269 63.112,250.000 62.464,250.000 61.916 C 250.000 60.611,249.221 58.400,248.761 58.400 C 248.562 58.400,248.400 57.950,248.400 57.400 C 248.400 56.850,248.040 56.040,247.600 55.600 C 247.160 55.160,246.800 54.440,246.800 54.000 C 246.800 53.560,246.466 52.866,246.058 52.458 C 245.650 52.050,245.207 51.283,245.074 50.754 C 244.942 50.225,244.196 49.096,243.417 48.246 C 242.637 47.395,242.000 46.334,242.000 45.888 C 242.000 45.015,230.369 33.209,229.490 33.189 C 229.220 33.182,227.924 32.462,226.609 31.589 C 225.293 30.715,224.062 30.000,223.872 30.000 C 223.682 30.000,223.069 29.640,222.509 29.200 C 221.950 28.760,221.111 28.399,220.646 28.397 C 220.181 28.396,219.260 28.037,218.600 27.600 C 217.940 27.163,216.964 26.804,216.431 26.803 C 215.899 26.801,215.147 26.514,214.761 26.165 C 214.354 25.796,212.996 25.435,211.530 25.304 C 210.138 25.179,208.558 24.790,208.019 24.439 C 207.039 23.801,192.633 23.349,190.000 23.874 M201.800 41.007 C 203.340 41.333,205.232 41.600,206.006 41.600 C 206.779 41.600,208.084 41.960,208.904 42.400 C 209.725 42.840,210.803 43.212,211.299 43.227 C 211.794 43.241,213.100 43.780,214.200 44.423 C 215.300 45.067,216.569 45.757,217.020 45.957 C 219.800 47.187,225.848 52.448,227.819 55.350 C 228.249 55.983,228.960 56.974,229.400 57.553 C 231.067 59.748,233.600 64.719,233.600 65.797 C 233.600 66.144,233.856 66.827,234.169 67.314 C 234.482 67.801,234.859 69.100,235.007 70.200 C 235.155 71.300,235.529 73.088,235.838 74.173 C 236.482 76.434,236.536 79.397,235.981 82.000 C 235.770 82.990,235.409 84.880,235.179 86.200 C 233.187 97.656,223.154 109.441,211.800 113.662 C 200.648 117.809,192.304 117.332,180.800 111.887 C 177.484 110.318,176.312 109.403,171.655 104.745 C 166.994 100.085,166.789 99.819,165.021 96.127 C 164.686 95.427,164.229 94.742,164.006 94.604 C 163.783 94.466,163.600 94.041,163.600 93.661 C 163.600 93.280,163.261 92.304,162.846 91.491 C 162.432 90.678,161.977 89.245,161.835 88.306 C 161.694 87.368,161.321 85.880,161.006 85.000 C 160.092 82.439,160.206 74.311,161.200 71.200 C 161.640 69.823,162.000 68.342,162.000 67.910 C 162.000 67.477,162.257 66.646,162.572 66.062 C 162.886 65.478,163.764 63.646,164.522 61.990 C 165.280 60.335,166.332 58.445,166.861 57.790 C 167.390 57.136,168.343 55.826,168.980 54.880 C 171.762 50.744,182.110 43.246,185.119 43.186 C 185.494 43.179,186.520 42.825,187.400 42.400 C 188.280 41.975,189.720 41.613,190.600 41.596 C 191.480 41.579,193.280 41.321,194.600 41.024 C 197.770 40.308,198.493 40.307,201.800 41.007 M93.137 241.558 C 92.552 242.021,91.652 242.401,91.137 242.401 C 90.622 242.402,89.611 242.762,88.890 243.201 C 88.170 243.641,87.253 244.000,86.852 244.000 C 86.451 244.000,85.707 244.360,85.200 244.800 C 84.693 245.240,83.929 245.600,83.502 245.600 C 83.075 245.600,82.269 245.960,81.709 246.400 C 81.150 246.840,80.378 247.200,79.995 247.200 C 79.612 247.200,79.083 247.458,78.821 247.774 C 78.559 248.090,77.805 248.467,77.145 248.612 C 76.486 248.757,75.849 249.128,75.730 249.438 C 75.612 249.747,75.084 250.000,74.557 250.000 C 74.031 250.000,73.268 250.332,72.862 250.738 C 72.457 251.143,71.445 251.585,70.613 251.720 C 69.781 251.855,68.808 252.223,68.450 252.538 C 68.093 252.853,67.227 253.233,66.528 253.381 C 65.828 253.530,65.056 253.891,64.813 254.184 C 64.570 254.477,63.765 254.830,63.024 254.969 C 62.283 255.108,61.576 255.487,61.451 255.811 C 61.327 256.135,60.776 256.400,60.228 256.400 C 59.680 256.400,58.909 256.736,58.516 257.147 C 58.122 257.558,57.143 258.012,56.340 258.157 C 55.537 258.303,54.660 258.686,54.391 259.011 C 54.122 259.335,53.498 259.600,53.005 259.600 C 52.512 259.600,51.650 259.960,51.091 260.400 C 50.531 260.840,49.710 261.200,49.265 261.200 C 48.821 261.200,48.196 261.461,47.877 261.780 C 47.558 262.099,46.780 262.484,46.148 262.634 C 45.517 262.784,44.730 263.139,44.400 263.423 C 44.070 263.706,43.290 264.065,42.668 264.220 C 42.045 264.376,41.441 264.750,41.325 265.051 C 41.209 265.353,40.684 265.600,40.157 265.600 C 39.631 265.600,38.840 265.960,38.400 266.400 C 37.960 266.840,37.278 267.200,36.885 267.200 C 36.491 267.200,35.471 267.556,34.617 267.991 C 33.764 268.426,32.466 268.980,31.733 269.222 C 31.000 269.464,30.400 269.808,30.400 269.987 C 30.400 270.165,29.761 270.431,28.979 270.578 C 28.197 270.724,27.458 271.104,27.336 271.422 C 27.214 271.740,26.684 272.000,26.157 272.000 C 25.631 272.000,24.840 272.360,24.400 272.800 C 23.960 273.240,23.442 273.600,23.249 273.600 C 23.056 273.600,22.665 273.880,22.381 274.223 C 22.096 274.566,21.264 275.097,20.532 275.403 C 19.799 275.709,19.200 276.148,19.200 276.380 C 19.200 276.611,19.007 276.800,18.771 276.800 C 17.915 276.800,8.400 286.980,8.400 287.896 C 8.400 288.173,8.085 288.727,7.700 289.128 C 6.665 290.203,5.200 292.314,5.200 292.730 C 5.200 292.929,4.838 293.552,4.396 294.114 C 3.955 294.675,3.484 295.678,3.352 296.342 C 3.219 297.006,2.873 297.640,2.583 297.751 C 2.293 297.862,1.926 298.819,1.768 299.877 C 1.609 300.935,1.191 302.010,0.840 302.267 C -0.252 303.066,-0.332 334.643,0.752 336.947 C 1.180 337.856,1.653 339.197,1.803 339.927 C 1.953 340.657,2.328 341.351,2.638 341.470 C 2.947 341.588,3.200 342.116,3.200 342.643 C 3.200 343.169,3.560 343.960,4.000 344.400 C 4.440 344.840,4.800 345.560,4.800 346.000 C 4.800 346.440,5.119 347.119,5.508 347.508 C 5.898 347.898,6.739 349.113,7.378 350.208 C 8.779 352.611,9.857 353.840,14.800 358.673 C 20.991 364.727,21.392 365.080,22.418 365.396 C 22.958 365.562,24.150 366.306,25.067 367.049 C 25.984 367.792,26.995 368.400,27.313 368.400 C 27.632 368.400,28.350 368.760,28.909 369.200 C 29.469 369.640,30.175 370.000,30.479 370.000 C 30.782 370.000,31.737 370.360,32.600 370.800 C 33.463 371.240,34.541 371.600,34.996 371.600 C 35.450 371.600,36.243 371.895,36.757 372.255 C 37.292 372.630,39.054 373.047,40.876 373.231 C 42.627 373.407,44.344 373.788,44.692 374.076 C 45.749 374.953,60.233 374.801,61.800 373.897 C 62.547 373.466,63.850 373.204,65.251 373.202 C 66.728 373.201,67.668 373.000,67.984 372.620 C 68.249 372.300,69.306 371.918,70.333 371.771 C 71.360 371.623,72.470 371.268,72.800 370.982 C 73.130 370.696,73.940 370.330,74.600 370.168 C 75.260 370.006,76.943 369.182,78.341 368.337 C 79.738 367.492,80.998 366.799,81.141 366.798 C 81.283 366.797,82.084 366.168,82.919 365.401 C 83.755 364.633,84.885 363.894,85.430 363.757 C 85.975 363.620,86.603 363.169,86.825 362.754 C 87.047 362.339,87.385 362.000,87.577 362.000 C 88.368 362.000,96.400 353.363,96.400 352.512 C 96.400 352.305,97.115 351.340,97.988 350.368 C 98.861 349.396,99.682 348.120,99.812 347.533 C 99.942 346.947,100.298 346.371,100.602 346.254 C 100.907 346.138,101.273 345.415,101.417 344.649 C 101.561 343.882,101.908 343.167,102.189 343.060 C 102.469 342.952,102.816 342.238,102.960 341.472 C 103.104 340.707,103.467 339.876,103.767 339.627 C 104.067 339.378,104.439 338.325,104.592 337.287 C 104.746 336.249,105.103 335.130,105.386 334.800 C 105.669 334.470,106.027 332.858,106.183 331.218 C 106.338 329.577,106.720 327.741,107.032 327.137 C 107.715 325.817,107.757 311.379,107.145 288.400 C 106.931 280.370,106.631 267.709,106.478 260.264 C 106.203 246.869,106.191 246.721,105.300 246.000 C 104.805 245.600,104.400 245.121,104.400 244.936 C 104.400 244.566,101.808 242.400,101.365 242.400 C 101.213 242.400,100.872 242.105,100.609 241.744 C 99.788 240.622,94.485 240.489,93.137 241.558 M59.000 282.402 C 68.381 284.013,78.403 290.348,83.041 297.600 C 83.674 298.590,84.284 299.490,84.396 299.600 C 84.508 299.710,84.797 300.160,85.038 300.600 C 87.022 304.229,87.869 306.091,88.182 307.520 C 88.338 308.228,88.709 309.301,89.007 309.904 C 89.737 311.379,90.162 321.696,89.663 325.800 C 88.700 333.705,83.216 343.364,76.487 349.005 C 73.614 351.414,67.031 355.198,65.705 355.202 C 65.317 355.204,64.460 355.489,63.800 355.836 C 60.402 357.621,45.135 357.629,41.800 355.846 C 41.140 355.494,40.358 355.204,40.062 355.202 C 39.766 355.201,39.046 354.946,38.462 354.635 C 37.878 354.325,36.410 353.588,35.200 352.999 C 33.990 352.409,32.820 351.718,32.600 351.463 C 32.380 351.209,31.189 350.339,29.954 349.532 C 27.911 348.196,23.232 343.424,22.838 342.273 C 22.749 342.013,22.096 341.080,21.387 340.200 C 20.678 339.320,19.964 338.150,19.801 337.600 C 19.639 337.050,19.293 336.330,19.034 336.000 C 16.140 332.318,14.113 318.072,15.742 312.868 C 16.064 311.841,16.434 310.370,16.565 309.600 C 16.813 308.140,17.076 307.498,19.182 303.200 C 21.045 299.396,21.223 299.121,23.935 295.816 C 26.304 292.930,32.103 287.969,34.343 286.913 C 34.924 286.639,35.670 286.243,36.000 286.032 C 37.209 285.260,41.169 283.600,41.802 283.600 C 42.160 283.600,42.846 283.382,43.326 283.115 C 45.101 282.130,54.839 281.687,59.000 282.402 M352.000 283.203 C 353.210 283.405,354.867 283.673,355.683 283.800 C 357.898 284.143,364.326 286.982,367.120 288.850 C 368.066 289.482,368.997 290.000,369.189 290.000 C 369.661 290.000,377.200 297.502,377.200 297.971 C 377.200 298.176,377.425 298.581,377.700 298.871 C 378.662 299.889,380.400 302.648,380.400 303.158 C 380.400 303.442,380.760 304.131,381.200 304.691 C 381.640 305.250,382.000 306.098,382.000 306.574 C 382.000 307.050,382.191 307.631,382.425 307.865 C 384.231 309.671,385.599 324.375,384.259 327.568 C 383.928 328.356,383.555 329.750,383.430 330.666 C 383.304 331.583,382.953 332.843,382.650 333.466 C 382.347 334.090,381.671 335.499,381.149 336.598 C 379.202 340.695,376.996 343.759,373.501 347.219 C 369.114 351.562,360.691 356.800,358.094 356.800 C 357.697 356.800,356.348 357.160,355.096 357.600 C 352.585 358.482,343.554 358.741,340.800 358.009 C 340.030 357.804,338.590 357.426,337.600 357.169 C 336.610 356.912,335.060 356.364,334.156 355.951 C 333.252 355.538,332.323 355.200,332.092 355.200 C 329.402 355.200,320.590 348.065,317.536 343.414 C 316.674 342.102,315.837 340.932,315.676 340.814 C 315.515 340.696,315.164 340.150,314.895 339.600 C 314.626 339.050,314.236 338.330,314.028 338.000 C 313.513 337.184,312.269 334.228,311.419 331.800 C 309.452 326.187,309.355 314.917,311.233 310.326 C 311.655 309.295,312.000 308.102,312.000 307.675 C 312.000 307.248,312.241 306.698,312.535 306.454 C 312.830 306.209,313.287 305.287,313.551 304.405 C 313.816 303.522,314.185 302.800,314.373 302.800 C 314.560 302.800,314.820 302.376,314.950 301.857 C 315.080 301.339,316.269 299.502,317.593 297.776 C 318.917 296.050,320.000 294.525,320.000 294.388 C 320.000 293.994,325.053 290.000,325.551 290.000 C 325.798 290.000,326.000 289.829,326.000 289.620 C 326.000 288.619,334.448 284.751,338.400 283.942 C 345.940 282.400,346.881 282.349,352.000 283.203 " stroke="none" fill="#fc0404" fill-rule="evenodd"></path><path id="path2" d="M192.000 42.389 C 154.861 49.542,150.783 99.471,186.233 112.986 C 215.696 124.219,244.632 92.577,231.579 63.400 C 225.074 48.858,207.326 39.437,192.000 42.389 M203.200 42.965 C 206.229 43.381,213.435 45.733,214.431 46.631 C 214.779 46.944,215.216 47.200,215.402 47.200 C 216.747 47.200,225.099 54.167,226.704 56.628 C 229.643 61.134,230.795 63.096,230.800 63.600 C 230.803 63.930,231.163 64.740,231.600 65.400 C 232.037 66.060,232.398 66.960,232.403 67.400 C 232.407 67.840,232.768 69.341,233.205 70.736 C 235.141 76.910,233.697 88.858,230.347 94.400 C 230.147 94.730,229.707 95.603,229.369 96.341 C 228.682 97.842,228.823 97.644,225.893 101.200 C 217.999 110.780,206.341 115.480,194.045 114.040 C 185.064 112.989,175.795 107.893,170.315 100.996 C 167.973 98.048,164.400 91.578,164.400 90.284 C 164.400 89.886,164.129 89.036,163.797 88.394 C 160.598 82.208,163.508 64.173,168.641 58.369 C 168.949 58.021,169.200 57.591,169.200 57.413 C 169.200 56.711,175.539 50.668,177.994 49.030 C 185.622 43.943,194.595 41.784,203.200 42.965 M44.707 283.987 C 36.111 285.974,27.270 292.157,22.470 299.540 C 16.331 308.981,14.551 322.386,18.239 331.400 C 21.559 339.514,24.650 343.894,30.111 348.222 C 50.561 364.432,80.648 354.910,87.687 330.000 C 95.237 303.285,71.440 277.810,44.707 283.987 M59.600 284.616 C 69.546 286.187,79.644 293.560,83.783 302.273 C 84.116 302.973,84.557 303.650,84.763 303.777 C 84.970 303.905,85.260 304.592,85.408 305.305 C 85.557 306.017,85.906 306.961,86.185 307.402 C 88.831 311.599,88.859 326.456,86.230 332.200 C 84.012 337.047,83.120 338.620,80.784 341.800 C 77.724 345.967,75.202 348.207,70.600 350.846 C 52.555 361.194,29.423 353.819,20.413 334.845 C 19.746 333.439,19.200 332.067,19.200 331.796 C 19.200 331.524,18.808 330.424,18.328 329.351 C 16.083 324.328,17.201 311.476,20.499 304.400 C 25.369 293.949,36.218 285.833,47.200 284.424 C 49.290 284.156,51.270 283.882,51.600 283.815 C 52.395 283.653,55.423 283.957,59.600 284.616 M341.600 284.369 C 333.406 285.561,324.632 290.550,319.690 296.825 C 317.187 300.003,314.000 305.188,314.000 306.081 C 314.000 306.378,313.752 306.977,313.448 307.411 C 311.507 310.186,310.217 320.736,311.175 326.000 C 316.355 354.462,347.593 366.769,369.879 349.127 C 384.188 337.800,387.843 317.194,378.311 301.600 C 370.851 289.397,355.750 282.310,341.600 284.369 M354.086 285.364 C 355.029 285.673,356.416 286.055,357.168 286.210 C 357.921 286.366,359.901 287.190,361.568 288.042 C 363.236 288.893,364.729 289.592,364.887 289.595 C 366.326 289.620,374.483 297.009,376.596 300.200 C 385.159 313.134,384.885 329.634,375.900 341.966 C 371.311 348.265,364.571 352.824,355.600 355.697 C 349.881 357.529,336.462 355.745,330.400 352.347 C 330.070 352.162,329.260 351.712,328.600 351.347 C 325.059 349.389,319.316 343.738,317.355 340.281 C 316.792 339.288,314.590 334.823,313.764 333.000 C 311.861 328.797,311.064 319.082,312.206 314.000 C 313.133 309.871,315.800 302.888,316.788 302.000 C 316.911 301.890,317.728 300.738,318.605 299.440 C 323.170 292.684,329.344 288.364,337.600 286.148 C 338.810 285.823,340.340 285.406,341.000 285.220 C 343.066 284.638,352.184 284.738,354.086 285.364 " stroke="none" fill="#5d0404" fill-rule="evenodd"></path><path id="path3" d="M191.800 41.952 C 183.727 43.145,172.853 49.891,168.568 56.364 C 166.402 59.635,166.066 60.194,165.066 62.200 C 162.892 66.556,162.767 66.959,161.161 74.800 C 160.476 78.145,161.931 89.276,163.223 90.580 C 163.431 90.789,163.600 91.205,163.600 91.505 C 163.600 92.396,165.632 96.420,167.374 98.979 C 174.354 109.231,186.141 115.600,198.135 115.600 C 223.546 115.600,241.727 90.150,233.284 66.400 C 232.101 63.072,228.993 57.507,227.294 55.676 C 227.016 55.376,226.317 54.514,225.742 53.759 C 219.381 45.420,204.159 40.125,191.800 41.952 M208.000 43.305 C 236.939 52.788,244.371 88.001,221.400 106.793 C 190.556 132.025,147.667 96.644,166.133 61.200 C 173.788 46.508,192.876 38.349,208.000 43.305 M49.000 282.829 C 45.665 283.067,41.228 284.117,39.819 285.002 C 39.369 285.285,38.571 285.645,38.046 285.802 C 35.505 286.563,28.245 291.700,25.783 294.478 C 24.033 296.454,22.066 299.061,21.350 300.354 C 19.201 304.235,18.413 305.858,18.407 306.411 C 18.403 306.747,18.136 307.399,17.813 307.860 C 17.490 308.321,17.108 309.486,16.963 310.449 C 16.819 311.412,16.453 313.183,16.151 314.384 C 14.383 321.398,17.594 334.688,22.549 340.861 C 23.017 341.444,23.850 342.521,24.400 343.253 C 34.410 356.578,54.627 360.667,70.200 352.517 C 86.290 344.096,94.071 322.466,86.933 306.000 C 85.930 303.686,84.319 300.641,83.742 299.969 C 83.444 299.621,83.200 299.207,83.200 299.047 C 83.200 298.586,79.040 293.544,77.343 291.949 C 70.267 285.294,60.133 282.033,49.000 282.829 M60.816 284.025 C 93.789 291.221,99.235 337.193,68.938 352.585 C 51.029 361.683,27.850 353.393,19.772 335.000 C 17.912 330.764,17.566 329.695,16.993 326.400 C 13.902 308.641,22.613 293.181,40.107 285.374 C 45.052 283.168,54.169 282.574,60.816 284.025 M340.200 284.205 C 331.905 285.743,324.270 290.224,319.462 296.376 C 316.742 299.856,315.668 301.396,315.193 302.494 C 314.978 302.992,314.634 303.670,314.429 304.000 C 312.146 307.676,310.788 313.079,310.609 319.200 L 310.451 324.600 310.804 319.400 C 310.997 316.540,311.436 313.412,311.778 312.450 C 312.120 311.487,312.400 310.404,312.400 310.044 C 312.400 309.683,312.760 308.716,313.200 307.896 C 313.640 307.075,314.000 306.209,314.000 305.971 C 314.000 305.173,317.326 299.826,319.690 296.825 C 331.561 281.750,355.710 279.840,370.750 292.785 C 383.531 303.785,387.096 320.733,379.967 336.600 C 378.144 340.660,373.867 345.970,369.879 349.127 C 347.673 366.705,316.457 354.509,311.197 326.200 L 310.900 324.600 310.850 326.172 C 310.684 331.382,316.752 342.993,322.352 348.178 C 340.326 364.824,369.262 359.062,380.497 336.600 C 383.572 330.453,385.097 321.567,384.006 316.155 C 380.727 299.880,373.497 291.303,357.800 285.071 C 354.132 283.615,345.639 283.197,340.200 284.205 " stroke="none" fill="#990404" fill-rule="evenodd"></path><path id="path4" d="M194.600 41.024 C 193.280 41.321,191.480 41.579,190.600 41.596 C 189.720 41.613,188.280 41.975,187.400 42.400 C 186.520 42.825,185.494 43.179,185.119 43.186 C 182.110 43.246,171.762 50.744,168.980 54.880 C 168.343 55.826,167.390 57.136,166.861 57.790 C 166.332 58.445,165.280 60.335,164.522 61.990 C 163.764 63.646,162.886 65.478,162.572 66.062 C 162.257 66.646,162.000 67.477,162.000 67.910 C 162.000 68.342,161.640 69.823,161.200 71.200 C 160.206 74.311,160.092 82.439,161.006 85.000 C 161.321 85.880,161.694 87.368,161.835 88.306 C 161.977 89.245,162.432 90.678,162.846 91.491 C 163.261 92.304,163.600 93.280,163.600 93.661 C 163.600 94.041,163.783 94.466,164.006 94.604 C 164.229 94.742,164.686 95.427,165.021 96.127 C 166.789 99.819,166.994 100.085,171.655 104.745 C 177.631 110.722,179.715 111.981,188.800 115.102 C 192.806 116.478,202.684 116.672,206.600 115.452 C 222.165 110.600,232.835 99.679,235.179 86.200 C 235.409 84.880,235.770 82.990,235.981 82.000 C 236.536 79.397,236.482 76.434,235.838 74.173 C 235.529 73.088,235.155 71.300,235.007 70.200 C 234.859 69.100,234.482 67.801,234.169 67.314 C 233.856 66.827,233.600 66.144,233.600 65.797 C 233.600 64.719,231.067 59.748,229.400 57.553 C 228.960 56.974,228.249 55.983,227.819 55.350 C 225.848 52.448,219.800 47.187,217.020 45.957 C 216.569 45.757,215.300 45.067,214.200 44.423 C 213.100 43.780,211.794 43.241,211.299 43.227 C 210.803 43.212,209.725 42.840,208.904 42.400 C 208.084 41.960,206.779 41.600,206.006 41.600 C 205.232 41.600,203.340 41.333,201.800 41.007 C 198.493 40.307,197.770 40.308,194.600 41.024 M208.800 42.996 C 215.303 45.230,222.934 50.078,225.742 53.759 C 226.317 54.514,227.016 55.376,227.294 55.676 C 232.619 61.416,236.181 73.311,235.176 82.000 C 233.504 96.463,225.107 107.406,211.136 113.332 C 198.722 118.598,182.130 114.829,172.000 104.443 C 167.882 100.221,163.600 93.625,163.600 91.505 C 163.600 91.205,163.431 90.789,163.223 90.580 C 161.931 89.276,160.476 78.145,161.161 74.800 C 162.767 66.959,162.892 66.556,165.066 62.200 C 166.066 60.194,166.402 59.635,168.568 56.364 C 176.209 44.822,195.478 38.419,208.800 42.996 M46.200 282.372 C 45.100 282.514,43.807 282.849,43.326 283.115 C 42.846 283.382,42.160 283.600,41.802 283.600 C 41.169 283.600,37.209 285.260,36.000 286.032 C 35.670 286.243,34.924 286.639,34.343 286.913 C 32.103 287.969,26.304 292.930,23.935 295.816 C 21.223 299.121,21.045 299.396,19.182 303.200 C 17.076 307.498,16.813 308.140,16.565 309.600 C 16.434 310.370,16.064 311.841,15.742 312.868 C 14.113 318.072,16.140 332.318,19.034 336.000 C 19.293 336.330,19.639 337.050,19.801 337.600 C 19.964 338.150,20.678 339.320,21.387 340.200 C 22.096 341.080,22.749 342.013,22.838 342.273 C 23.232 343.424,27.911 348.196,29.954 349.532 C 31.189 350.339,32.380 351.209,32.600 351.463 C 32.820 351.718,33.990 352.409,35.200 352.999 C 36.410 353.588,37.878 354.325,38.462 354.635 C 39.046 354.946,39.766 355.201,40.062 355.202 C 40.358 355.204,41.140 355.494,41.800 355.846 C 45.135 357.629,60.402 357.621,63.800 355.836 C 64.460 355.489,65.317 355.204,65.705 355.202 C 67.031 355.198,73.614 351.414,76.487 349.005 C 83.216 343.364,88.700 333.705,89.663 325.800 C 90.162 321.696,89.737 311.379,89.007 309.904 C 88.709 309.301,88.338 308.228,88.182 307.520 C 87.869 306.091,87.022 304.229,85.038 300.600 C 84.797 300.160,84.508 299.710,84.396 299.600 C 84.284 299.490,83.674 298.590,83.041 297.600 C 75.973 286.549,61.176 280.433,46.200 282.372 M61.600 283.684 C 67.476 285.156,73.461 288.298,77.343 291.949 C 79.040 293.544,83.200 298.586,83.200 299.047 C 83.200 299.207,83.444 299.621,83.742 299.969 C 90.604 307.963,91.348 325.419,85.321 337.000 C 73.183 360.322,39.796 363.748,24.400 343.253 C 23.850 342.521,23.017 341.444,22.549 340.861 C 17.594 334.688,14.383 321.398,16.151 314.384 C 16.453 313.183,16.819 311.412,16.963 310.449 C 17.108 309.486,17.490 308.321,17.813 307.860 C 18.136 307.399,18.403 306.747,18.407 306.411 C 18.413 305.858,19.201 304.235,21.350 300.354 C 22.066 299.061,24.033 296.454,25.783 294.478 C 28.245 291.700,35.505 286.563,38.046 285.802 C 38.571 285.645,39.369 285.285,39.819 285.002 C 43.587 282.635,54.722 281.961,61.600 283.684 M343.000 283.035 C 337.468 284.100,336.563 284.324,333.988 285.272 C 330.907 286.405,326.000 289.076,326.000 289.620 C 326.000 289.829,325.798 290.000,325.551 290.000 C 325.053 290.000,320.000 293.994,320.000 294.388 C 320.000 294.525,318.917 296.050,317.593 297.776 C 316.269 299.502,315.080 301.339,314.950 301.857 C 314.820 302.376,314.560 302.800,314.373 302.800 C 314.185 302.800,313.816 303.522,313.551 304.405 C 313.287 305.287,312.830 306.209,312.535 306.454 C 312.241 306.698,312.000 307.248,312.000 307.675 C 312.000 308.102,311.655 309.295,311.233 310.326 C 309.355 314.917,309.452 326.187,311.419 331.800 C 312.269 334.228,313.513 337.184,314.028 338.000 C 314.236 338.330,314.626 339.050,314.895 339.600 C 315.164 340.150,315.515 340.696,315.676 340.814 C 315.837 340.932,316.674 342.102,317.536 343.414 C 320.590 348.065,329.402 355.200,332.092 355.200 C 332.323 355.200,333.252 355.538,334.156 355.951 C 335.060 356.364,336.610 356.912,337.600 357.169 C 338.590 357.426,340.030 357.804,340.800 358.009 C 343.554 358.741,352.585 358.482,355.096 357.600 C 356.348 357.160,357.697 356.800,358.094 356.800 C 359.124 356.800,365.381 353.708,368.101 351.855 C 373.293 348.318,378.440 342.300,381.149 336.598 C 381.671 335.499,382.347 334.090,382.650 333.466 C 382.953 332.843,383.304 331.583,383.430 330.666 C 383.555 329.750,383.928 328.356,384.259 327.568 C 385.599 324.375,384.231 309.671,382.425 307.865 C 382.191 307.631,382.000 307.050,382.000 306.574 C 382.000 306.098,381.640 305.250,381.200 304.691 C 380.760 304.131,380.400 303.442,380.400 303.158 C 380.400 302.648,378.662 299.889,377.700 298.871 C 377.425 298.581,377.200 298.176,377.200 297.971 C 377.200 297.502,369.661 290.000,369.189 290.000 C 368.997 290.000,368.066 289.482,367.120 288.850 C 364.326 286.982,357.898 284.143,355.683 283.800 C 354.867 283.673,353.210 283.405,352.000 283.203 C 347.978 282.532,345.827 282.492,343.000 283.035 M353.323 284.018 C 356.446 284.471,357.640 284.884,362.800 287.294 C 374.587 292.799,381.082 301.638,384.006 316.155 C 387.327 332.638,373.598 352.296,355.559 356.886 C 343.127 360.049,326.731 354.716,319.565 345.178 C 309.421 331.677,307.384 315.343,314.429 304.000 C 314.634 303.670,314.978 302.992,315.193 302.494 C 315.668 301.396,316.742 299.856,319.462 296.376 C 326.890 286.872,340.009 282.084,353.323 284.018 " stroke="none" fill="#cc0404" fill-rule="evenodd"></path></g></svg>